GIL11_slow2_ik
nRows=3
nColumns=375

# SIMM Motion File Header:
name GIL11_slow2_ik
datacolumns 375
datarows 3
otherdata 1
range 0.26667000 0.28333000
endheader
time	pelvis_tx	pelvis_ty	pelvis_tz	pelvis_tilt	pelvis_list	pelvis_rotation	hip_flexion_r	hip_adduction_r	hip_rotation_r	knee_angle_r	ankle_angle_r	hip_flexion_l	hip_adduction_l	hip_rotation_l	knee_angle_l	ankle_angle_l	lumbar_extension	lumbar_bending	lumbar_rotation	subtalar_angle_r	mtp_angle_r	subtalar_angle_l	mtp_angle_l	asis_r_px	asis_r_py	asis_r_pz	asis_l_px	asis_l_py	asis_l_pz	midasis_px	midasis_py	midasis_pz	psis_r_px	psis_r_py	psis_r_pz	psis_l_px	psis_l_py	psis_l_pz	hip_r_px	hip_r_py	hip_r_pz	hip_l_px	hip_l_py	hip_l_pz	midhip_px	midhip_py	midhip_pz	epicondLat_r_px	epicondLat_r_py	epicondLat_r_pz	epicondMed_r_px	epicondMed_r_py	epicondMed_r_pz	thighwand_r_px	thighwand_r_py	thighwand_r_pz	upperleg1_r_px	upperleg1_r_py	upperleg1_r_pz	upperleg2_r_px	upperleg2_r_py	upperleg2_r_pz	malleolusLat_r_px	malleolusLat_r_py	malleolusLat_r_pz	malleolusMedv_r_px	malleolusMedv_r_py	malleolusMedv_r_pz	shankwand_r_px	shankwand_r_py	shankwand_r_pz	lowerleg1_r_px	lowerleg1_r_py	lowerleg1_r_pz	knee_r_px	knee_r_py	knee_r_pz	ankle_r_px	ankle_r_py	ankle_r_pz	toe_r_px	toe_r_py	toe_r_pz	epicondLat_l_px	epicondLat_l_py	epicondLat_l_pz	epicondMed_l_px	epicondMed_l_py	epicondMed_l_pz	thighwand_l_px	thighwand_l_py	thighwand_l_pz	upperleg1_l_px	upperleg1_l_py	upperleg1_l_pz	upperleg2_l_px	upperleg2_l_py	upperleg2_l_pz	malleolusLat_l_px	malleolusLat_l_py	malleolusLat_l_pz	malleolusMedv_l_px	malleolusMedv_l_py	malleolusMedv_l_pz	shankwand_l_px	shankwand_l_py	shankwand_l_pz	lowerleg1_l_px	lowerleg1_l_py	lowerleg1_l_pz	knee_l_px	knee_l_py	knee_l_pz	ankle_l_px	ankle_l_py	ankle_l_pz	toe_l_px	toe_l_py	toe_l_pz	subclavicle_r_px	subclavicle_r_py	subclavicle_r_pz	subclavicle_l_px	subclavicle_l_py	subclavicle_l_pz	neck_px	neck_py	neck_pz	sternalnotch_px	sternalnotch_py	sternalnotch_pz	xyphoidprocess_px	xyphoidprocess_py	xyphoidprocess_pz	midhip_tx	midhip_ty	midhip_tz	hip_r_tx	hip_r_ty	hip_r_tz	hip_l_tx	hip_l_ty	hip_l_tz	knee_r_tx	knee_r_ty	knee_r_tz	knee_l_tx	knee_l_ty	knee_l_tz	ankle_r_tx	ankle_r_ty	ankle_r_tz	ankle_l_tx	ankle_l_ty	ankle_l_tz	midasis_tx	midasis_ty	midasis_tz	asis_r_tx	asis_r_ty	asis_r_tz	asis_l_tx	asis_l_ty	asis_l_tz	psis_r_tx	psis_r_ty	psis_r_tz	psis_l_tx	psis_l_ty	psis_l_tz	epicondLat_r_tx	epicondLat_r_ty	epicondLat_r_tz	epicondLat_l_tx	epicondLat_l_ty	epicondLat_l_tz	epicondMed_r_tx	epicondMed_r_ty	epicondMed_r_tz	epicondMed_l_tx	epicondMed_l_ty	epicondMed_l_tz	malleolusLat_r_tx	malleolusLat_r_ty	malleolusLat_r_tz	malleolusLat_l_tx	malleolusLat_l_ty	malleolusLat_l_tz	malleolusMedv_r_tx	malleolusMedv_r_ty	malleolusMedv_r_tz	malleolusMedv_l_tx	malleolusMedv_l_ty	malleolusMedv_l_tz	neck_tx	neck_ty	neck_tz	subclavicle_r_tx	subclavicle_r_ty	subclavicle_r_tz	subclavicle_l_tx	subclavicle_l_ty	subclavicle_l_tz	sternalnotch_tx	sternalnotch_ty	sternalnotch_tz	xyphoidprocess_tx	xyphoidprocess_ty	xyphoidprocess_tz	thighwand_r_tx	thighwand_r_ty	thighwand_r_tz	thighwand_l_tx	thighwand_l_ty	thighwand_l_tz	upperleg1_r_tx	upperleg1_r_ty	upperleg1_r_tz	upperleg1_l_tx	upperleg1_l_ty	upperleg1_l_tz	upperleg2_r_tx	upperleg2_r_ty	upperleg2_r_tz	upperleg2_l_tx	upperleg2_l_ty	upperleg2_l_tz	shankwand_r_tx	shankwand_r_ty	shankwand_r_tz	shankwand_l_tx	shankwand_l_ty	shankwand_l_tz	lowerleg1_r_tx	lowerleg1_r_ty	lowerleg1_r_tz	lowerleg1_l_tx	lowerleg1_l_ty	lowerleg1_l_tz	toe_r_tx	toe_r_ty	toe_r_tz	toe_l_tx	toe_l_ty	toe_l_tz	ground_force_vx	ground_force_vy	ground_force_vz	ground_force_px	ground_force_py	ground_force_pz	ground_force_vx	ground_force_vy	ground_force_vz	ground_force_px	ground_force_py	ground_force_pz	ground_torque_x	ground_torque_y	ground_torque_z	ground_torque_x	ground_torque_y	ground_torque_z	ground_marker_px	ground_marker_py	ground_marker_pz	ground_marker_px	ground_marker_py	ground_marker_pz	ground_marker_px	ground_marker_py	ground_marker_pz	ground_marker_px	ground_marker_py	ground_marker_pz	ground_marker_px	ground_marker_py	ground_marker_pz	ground_marker_px	ground_marker_py	ground_marker_pz	ground_marker_px	ground_marker_py	ground_marker_pz	ground_marker_px	ground_marker_py	ground_marker_pz	ground_marker_px	ground_marker_py	ground_marker_pz	ground_marker_px	ground_marker_py	ground_marker_pz	ground_marker_px	ground_marker_py	ground_marker_pz	ground_marker_px	ground_marker_py	ground_marker_pz	ground_marker_px	ground_marker_py	ground_marker_pz	ground_marker_px	ground_marker_py	ground_marker_pz	ground_marker_px	ground_marker_py	ground_marker_pz	ground_marker_px	ground_marker_py	ground_marker_pz	ground_marker_px	ground_marker_py	ground_marker_pz	ground_marker_px	ground_marker_py	ground_marker_pz	ground_marker_px	ground_marker_py	ground_marker_pz	ground_marker_px	ground_marker_py	ground_marker_pz	ground_marker_px	ground_marker_py	ground_marker_pz	ground_marker_px	ground_marker_py	ground_marker_pz	ground_marker_px	ground_marker_py	ground_marker_pz	ground_marker_px	ground_marker_py	ground_marker_pz	ground_marker_px	ground_marker_py	ground_marker_pz	ground_marker_px	ground_marker_py	ground_marker_pz	ground_marker_px	ground_marker_py	ground_marker_pz	ground_marker_px	ground_marker_py	ground_marker_pz	ground_marker_px	ground_marker_py	ground_marker_pz	ground_marker_px	ground_marker_py	ground_marker_pz	ground_marker_px	ground_marker_py	ground_marker_pz	ground_marker_px	ground_marker_py	ground_marker_pz	ground_marker_px	ground_marker_py	ground_marker_pz	ground_marker_px	ground_marker_py	ground_marker_pz	ground_marker_px	ground_marker_py	ground_marker_pz	ground_marker_px	ground_marker_py	ground_marker_pz	ground_marker_px	ground_marker_py	ground_marker_pz
      0.26667000	      1.47094410	      0.86704164	     -0.27877230	     -6.60349182	      3.30705976	      3.00656874	      0.24435181	     -9.09965101	      1.30256692	    -41.48577083	    -25.96694259	     18.65567577	      6.86079924	      7.21768264	    -11.94722172	     -1.77878995	      0.57341613	     -3.69711798	      1.54809610	      0.00000000	      0.00000000	      0.00000000	      0.00000000	      1.52323727	      0.84454690	     -0.17145064	      1.51109437	      0.86293522	     -0.40565323	      1.48371027	      0.86560294	     -0.27944593	      1.33488928	      0.94101393	     -0.23916486	      1.32853621	      0.94162833	     -0.29349856	      1.40299112	      0.80921747	     -0.20237922	      1.39601226	      0.81892470	     -0.35536945	      1.39950169	      0.81407109	     -0.27887434	      1.38916781	      0.42441836	     -0.10385951	      1.37952249	      0.41294576	     -0.21996491	      1.55376391	      0.53465442	     -0.20243706	      1.49748968	      0.59914402	     -0.15139889	      1.47519564	      0.51483557	     -0.13944749	      1.07370772	      0.18976829	     -0.06921338	      1.09318215	      0.16050749	     -0.13591290	      1.12900735	      0.25695928	     -0.01398507	      1.13708203	      0.25287939	     -0.05735026	      1.36613853	      0.43020470	     -0.16408439	      1.09271079	      0.18074729	     -0.11754563	      1.08105476	      0.07870837	     -0.04876002	      1.51495634	      0.43707215	     -0.40347616	      1.49948395	      0.44929016	     -0.28115365	      1.52762639	      0.56977056	     -0.49030533	      1.45244789	      0.60825437	     -0.44001473	      1.47635413	      0.52520902	     -0.42230206	      1.46602753	      0.05856683	     -0.37745775	      1.47954848	      0.06967168	     -0.30898434	      1.57046201	      0.18148628	     -0.32469104	      1.52973595	      0.18017800	     -0.33582146	      1.47397147	      0.44890955	     -0.33736822	      1.47652033	      0.07602194	     -0.32707643	      1.58151856	      0.02878137	     -0.35607031	      1.48401361	      1.32614172	     -0.22380079	      1.47787619	      1.32218582	     -0.32945081	      1.35115862	      1.36466803	     -0.26613047	      1.47803957	      1.32037971	     -0.27577906	      1.52875904	      1.25851934	     -0.28024970	      1.40975300	      0.82512500	     -0.27505200	      1.39742900	      0.79942400	     -0.19931800	      1.38581300	      0.80966200	     -0.35065600	      1.36151800	      0.42849100	     -0.15683500	      1.47095000	      0.43161600	     -0.33739100	      1.08550400	      0.17335900	     -0.14341300	      1.47408700	      0.06888400	     -0.31274200	      1.48447900	      0.87542100	     -0.27426400	      1.48961000	      0.86750000	     -0.15681600	      1.47934800	      0.88334100	     -0.39171100	      1.29320100	      0.94004800	     -0.23077500	      1.28681400	      0.93810900	     -0.28490100	      1.36676100	      0.43456200	     -0.09939300	      1.47698900	      0.43095200	     -0.39507200	      1.37387500	      0.42089600	     -0.22052600	      1.48415500	      0.44344400	     -0.27781900	      1.07384200	      0.18783900	     -0.10799700	      1.45950500	      0.06623300	     -0.34989500	      1.10096300	      0.16841100	     -0.17446000	      1.48419800	      0.07873000	     -0.28821000	      1.35158700	      1.37334000	     -0.26589700	      1.48259500	      1.31489500	     -0.22437500	      1.47665500	      1.30943000	     -0.33048100	      1.47602000	      1.30876000	     -0.27617300	      1.51778700	      1.24039800	     -0.27916800	      1.54296100	      0.54465000	     -0.19074300	      1.48694100	      0.55954700	     -0.48911000	      1.48314600	      0.60703200	     -0.13896400	      1.41908300	      0.60152400	     -0.43093600	      1.46319700	      0.52190200	     -0.13177000	      1.44400400	      0.51860800	     -0.41565100	      1.12470100	      0.25784900	     -0.04131000	      1.56561400	      0.19600200	     -0.31716400	      1.13419800	      0.25720900	     -0.08415900	      1.52414500	      0.19251000	     -0.32525200	      1.09305500	      0.07063800	     -0.12883200	      1.57789100	      0.04215700	     -0.34818000	      0.00000000	      0.00000000	      0.00000000	      1.88544360	      0.00000000	     -0.21757190	    -44.91979481	    579.50659212	     29.27472008	      1.50069739	      0.00000000	     -0.32695505	      0.00000000	      0.00000000	      0.00000000	      0.00000000	      0.44039587	      0.00000000	      1.40975308	      0.82512504	     -0.27505219	      1.39742911	      0.79942417	     -0.19931835	      1.38581300	      0.80966192	     -0.35065591	      1.36151767	      0.42849058	     -0.15683542	      1.47094989	      0.43161616	     -0.33739111	      1.08550441	      0.17335938	     -0.14341341	      1.47408736	      0.06888387	     -0.31274199	      1.48447871	      0.87542069	     -0.27426374	      1.48960960	      0.86749995	     -0.15681623	      1.47934794	      0.88334137	     -0.39171126	      1.29320133	      0.94004762	     -0.23077452	      1.28681433	      0.93810898	     -0.28490114	      1.36676085	      0.43456185	     -0.09939284	      1.47698927	      0.43095237	     -0.39507198	      1.37387478	      0.42089570	     -0.22052597	      1.48415470	      0.44344354	     -0.27781931	      1.07384217	      0.18783939	     -0.10799702	      1.45950460	      0.06623306	     -0.34989461	      1.10096312	      0.16841111	     -0.17446037	      1.48419821	      0.07872978	     -0.28821024	      1.35158730	      1.37333989	     -0.26589704	      1.48259497	      1.31489503	     -0.22437513	      1.47665489	      1.30943024	     -0.33048066	      1.47602010	      1.30875957	     -0.27617252	      1.51778698	      1.24039817	     -0.27916771	      1.54296100	      0.54464978	     -0.19074285	      1.48694122	      0.55954695	     -0.48910964	      1.48314595	      0.60703206	     -0.13896386	      1.41908300	      0.60152441	     -0.43093631	      1.46319687	      0.52190214	     -0.13177012	      1.44400430	      0.51860827	     -0.41565084	      1.12470102	      0.25784904	     -0.04131042	      1.56561399	      0.19600224	     -0.31716424	      1.13419819	      0.25720856	     -0.08415858	      1.52414513	      0.19250973	     -0.32525206	      1.09305525	      0.07063848	     -0.12883160	      1.57789123	      0.04215735	     -0.34818044
      0.27500000	      1.47658168	      0.86750345	     -0.28064261	     -6.66200173	      3.10973327	      3.11532131	      1.26016648	     -9.01783500	      1.18892063	    -42.93448571	    -26.55100049	     18.37097772	      6.78259237	      7.17111451	    -12.14032177	     -1.29464482	      0.58779858	     -3.45928510	      1.31401082	      0.00000000	      0.00000000	      0.00000000	      0.00000000	      1.52909906	      0.84530433	     -0.17336889	      1.51643858	      0.86295402	     -0.40760090	      1.48934496	      0.86605087	     -0.28134072	      1.34068506	      0.94172709	     -0.24096238	      1.33420859	      0.94217339	     -0.29528315	      1.40875051	      0.80998655	     -0.20391006	      1.40143144	      0.81921042	     -0.35691430	      1.40509098	      0.81459848	     -0.28041218	      1.40133504	      0.42512096	     -0.10496028	      1.39199273	      0.41335534	     -0.22106113	      1.56413787	      0.53800875	     -0.20351475	      1.50673532	      0.60159679	     -0.15260206	      1.48585692	      0.51693752	     -0.14057396	      1.08370913	      0.19242557	     -0.07050779	      1.10316048	      0.16278806	     -0.13704753	      1.13937755	      0.25934160	     -0.01531616	      1.14756001	      0.25505379	     -0.05864107	      1.37841083	      0.43014610	     -0.16519575	      1.10279522	      0.18309104	     -0.11874770	      1.08901126	      0.08142757	     -0.04979985	      1.51792424	      0.43654832	     -0.40458478	      1.50297402	      0.44913457	     -0.28223468	      1.53106465	      0.56897243	     -0.49176214	      1.45630157	      0.60801694	     -0.44128477	      1.47977820	      0.52487086	     -0.42347031	      1.46557576	      0.05844271	     -0.37765133	      1.47944438	      0.06955222	     -0.30924825	      1.57133724	      0.18048544	     -0.32549621	      1.53056120	      0.17953502	     -0.33647897	      1.47729360	      0.44877057	     -0.33835029	      1.47641070	      0.07589576	     -0.32734177	      1.58120596	      0.02849210	     -0.35680005	      1.48996908	      1.32660223	     -0.22534506	      1.48406327	      1.32270599	     -0.33101050	      1.35724172	      1.36526462	     -0.26795018	      1.48410572	      1.32087211	     -0.27733946	      1.53478184	      1.25897044	     -0.28172925	      1.41465400	      0.82493200	     -0.27704100	      1.40335800	      0.80013300	     -0.20025700	      1.39132400	      0.80997300	     -0.35158800	      1.37356900	      0.42836400	     -0.15746800	      1.47417800	      0.43156800	     -0.33807500	      1.09610500	      0.17624300	     -0.14514600	      1.47396800	      0.06890400	     -0.31278000	      1.49027600	      0.87583200	     -0.27565500	      1.49573700	      0.86821700	     -0.15808000	      1.48481500	      0.88344800	     -0.39323000	      1.29921400	      0.94069100	     -0.23172300	      1.29250700	      0.93883300	     -0.28585800	      1.37870200	      0.43456400	     -0.10002900	      1.47996700	      0.43077500	     -0.39578000	      1.38713600	      0.41844800	     -0.21948900	      1.48558700	      0.44250900	     -0.27864000	      1.08468200	      0.19055300	     -0.10958300	      1.45952300	      0.06631700	     -0.34999100	      1.11151900	      0.17196900	     -0.17647000	      1.48461300	      0.07853100	     -0.28845600	      1.35737000	      1.37398100	     -0.26771200	      1.48904500	      1.31551500	     -0.22566100	      1.48270400	      1.30996700	     -0.33211000	      1.48227900	      1.30936800	     -0.27773600	      1.52408500	      1.24100500	     -0.28072300	      1.55332200	      0.54695100	     -0.19141200	      1.49027800	      0.55926300	     -0.49006600	      1.49202100	      0.60835400	     -0.14027500	      1.42323100	      0.60135000	     -0.43166900	      1.47400900	      0.52237000	     -0.13199500	      1.44666400	      0.51869300	     -0.41652600	      1.13595500	      0.25925100	     -0.04246000	      1.56672300	      0.19530800	     -0.31703000	      1.14509000	      0.25907900	     -0.08489100	      1.52523500	      0.19154500	     -0.32467800	      1.10148500	      0.07307900	     -0.12980000	      1.57795300	      0.04203400	     -0.34821700	      0.00000000	      0.00000000	      0.00000000	      1.88753369	      0.00000000	     -0.21757947	    -43.93753400	    579.60886799	     29.79890673	      1.50266943	      0.00000000	     -0.32768890	      0.00000000	      0.00000000	      0.00000000	      0.00000000	      0.49661279	      0.00000000	      1.41465425	      0.82493168	     -0.27704066	      1.40335774	      0.80013347	     -0.20025714	      1.39132380	      0.80997318	     -0.35158846	      1.37356853	      0.42836449	     -0.15746762	      1.47417772	      0.43156785	     -0.33807486	      1.09610546	      0.17624298	     -0.14514636	      1.47396779	      0.06890384	     -0.31278020	      1.49027634	      0.87583226	     -0.27565473	      1.49573708	      0.86821675	     -0.15807986	      1.48481548	      0.88344777	     -0.39322963	      1.29921401	      0.94069064	     -0.23172310	      1.29250669	      0.93883252	     -0.28585789	      1.37870228	      0.43456414	     -0.10002889	      1.47996736	      0.43077478	     -0.39577973	      1.38713574	      0.41844797	     -0.21948941	      1.48558688	      0.44250894	     -0.27863979	      1.08468175	      0.19055286	     -0.10958336	      1.45952344	      0.06631684	     -0.34999132	      1.11151934	      0.17196897	     -0.17647044	      1.48461282	      0.07853060	     -0.28845552	      1.35736990	      1.37398076	     -0.26771194	      1.48904490	      1.31551540	     -0.22566110	      1.48270357	      1.30996668	     -0.33211023	      1.48227942	      1.30936778	     -0.27773637	      1.52408493	      1.24100482	     -0.28072292	      1.55332160	      0.54695135	     -0.19141176	      1.49027824	      0.55926323	     -0.49006569	      1.49202144	      0.60835445	     -0.14027488	      1.42323136	      0.60135049	     -0.43166882	      1.47400868	      0.52237034	     -0.13199548	      1.44666374	      0.51869285	     -0.41652632	      1.13595498	      0.25925139	     -0.04245997	      1.56672299	      0.19530788	     -0.31703022	      1.14508963	      0.25907850	     -0.08489086	      1.52523506	      0.19154496	     -0.32467806	      1.10148478	      0.07307912	     -0.12980047	      1.57795298	      0.04203399	     -0.34821737
      0.28333000	      1.48199343	      0.86782026	     -0.28236438	     -6.72270869	      2.92902626	      3.22769722	      2.30844431	     -8.94188586	      1.08268391	    -44.35927254	    -26.77992353	     18.11009745	      6.71855326	      7.11884124	    -12.35459772	     -0.78070679	      0.56194992	     -3.22794970	      1.09370480	      0.00000000	      0.00000000	      0.00000000	      0.00000000	      1.53473775	      0.84588228	     -0.17514830	      1.52155207	      0.86286404	     -0.40940071	      1.49475368	      0.86635342	     -0.28308777	      1.34625979	      0.94228915	     -0.24258595	      1.33965806	      0.94258398	     -0.29689268	      1.41428525	      0.81059149	     -0.20530847	      1.40662091	      0.81937815	     -0.35832154	      1.41045308	      0.81498482	     -0.28181500	      1.41349784	      0.42573718	     -0.10604058	      1.40444490	      0.41371463	     -0.22213803	      1.57438199	      0.54135961	     -0.20457554	      1.51584505	      0.60398113	     -0.15375661	      1.49643453	      0.51898130	     -0.14167204	      1.09396278	      0.19470894	     -0.07182825	      1.11340282	      0.16474034	     -0.13822285	      1.14994614	      0.26137687	     -0.01665494	      1.15823050	      0.25690559	     -0.05994192	      1.39067509	      0.43001074	     -0.16627836	      1.11312888	      0.18509781	     -0.11998205	      1.09797641	      0.08376098	     -0.05084080	      1.52079993	      0.43596689	     -0.40556858	      1.50637352	      0.44890667	     -0.28319248	      1.53435578	      0.56812264	     -0.49308887	      1.45999918	      0.60769560	     -0.44242297	      1.48307747	      0.52445922	     -0.42451000	      1.46504036	      0.05827901	     -0.37773501	      1.47925725	      0.06938481	     -0.30940287	      1.57211879	      0.17942800	     -0.32618692	      1.53129650	      0.17883688	     -0.33702208	      1.48052851	      0.44855257	     -0.33920735	      1.47621774	      0.07572301	     -0.32749728	      1.58082753	      0.02821246	     -0.35743862	      1.49599620	      1.32683736	     -0.22667996	      1.49028530	      1.32302294	     -0.33235910	      1.36341249	      1.36574232	     -0.26951092	      1.49022263	      1.32115227	     -0.27868935	      1.54080747	      1.25917219	     -0.28302528	      1.41904300	      0.82423200	     -0.27849600	      1.40916400	      0.80079600	     -0.20118300	      1.39671400	      0.81026600	     -0.35250500	      1.38567900	      0.42825800	     -0.15811100	      1.47739100	      0.43151100	     -0.33868800	      1.10705200	      0.17893100	     -0.14708000	      1.47380100	      0.06891800	     -0.31277400	      1.49595900	      0.87619900	     -0.27701900	      1.50174900	      0.86886800	     -0.15932500	      1.49016800	      0.88353000	     -0.39471200	      1.30513500	      0.94130500	     -0.23261000	      1.29813100	      0.93951600	     -0.28674800	      1.39071100	      0.43458200	     -0.10067600	      1.48293100	      0.43058500	     -0.39641500	      1.40107200	      0.41592300	     -0.21837800	      1.48789600	      0.44336800	     -0.27818900	      1.09585000	      0.19302900	     -0.11136200	      1.45955900	      0.06639400	     -0.35006800	      1.12245100	      0.17480400	     -0.17853600	      1.48484600	      0.07837300	     -0.28861700	      1.36359700	      1.37439400	     -0.26921200	      1.49491500	      1.31583700	     -0.22682100	      1.48892100	      1.31065700	     -0.33313800	      1.48850500	      1.30996500	     -0.27925900	      1.53010600	      1.24150200	     -0.28193700	      1.56358500	      0.54934900	     -0.19211500	      1.49356200	      0.55898700	     -0.49097100	      1.50088000	      0.60968300	     -0.14158100	      1.42731500	      0.60135700	     -0.43310900	      1.48522300	      0.52302600	     -0.13226800	      1.45000600	      0.51817700	     -0.41692500	      1.14744700	      0.26038300	     -0.04378700	      1.56770700	      0.19463800	     -0.31668900	      1.15629100	      0.26029900	     -0.08595400	      1.52639300	      0.19045100	     -0.32432300	      1.11088300	      0.07540700	     -0.13069600	      1.57800300	      0.04195000	     -0.34824300	      0.00000000	      0.00000000	      0.00000000	      1.88980249	      0.00000000	     -0.21753737	    -42.54202295	    580.33439217	     30.39883269	      1.50477856	      0.00000000	     -0.32844214	      0.00000000	      0.00000000	      0.00000000	      0.00000000	      0.56225793	      0.00000000	      1.41904318	      0.82423198	     -0.27849627	      1.40916419	      0.80079591	     -0.20118344	      1.39671361	      0.81026596	     -0.35250467	      1.38567853	      0.42825833	     -0.15811054	      1.47739077	      0.43151051	     -0.33868802	      1.10705173	      0.17893086	     -0.14708009	      1.47380078	      0.06891815	     -0.31277430	      1.49595857	      0.87619919	     -0.27701858	      1.50174880	      0.86886835	     -0.15932524	      1.49016845	      0.88353002	     -0.39471191	      1.30513477	      0.94130510	     -0.23260991	      1.29813111	      0.93951637	     -0.28674835	      1.39071059	      0.43458167	     -0.10067629	      1.48293066	      0.43058470	     -0.39641541	      1.40107167	      0.41592321	     -0.21837842	      1.48789620	      0.44336796	     -0.27818865	      1.09584999	      0.19302918	     -0.11136235	      1.45955944	      0.06639384	     -0.35006791	      1.12245083	      0.17480427	     -0.17853625	      1.48484564	      0.07837255	     -0.28861666	      1.36359715	      1.37439382	     -0.26921239	      1.49491465	      1.31583667	     -0.22682129	      1.48892057	      1.31065691	     -0.33313850	      1.48850489	      1.30996478	     -0.27925861	      1.53010571	      1.24150169	     -0.28193662	      1.56358540	      0.54934895	     -0.19211468	      1.49356151	      0.55898678	     -0.49097100	      1.50087976	      0.60968292	     -0.14158107	      1.42731464	      0.60135692	     -0.43310893	      1.48522317	      0.52302629	     -0.13226810	      1.45000601	      0.51817745	     -0.41692531	      1.14744675	      0.26038316	     -0.04378705	      1.56770718	      0.19463812	     -0.31668887	      1.15629148	      0.26029897	     -0.08595391	      1.52639258	      0.19045147	     -0.32432348	      1.11088347	      0.07540744	     -0.13069588	      1.57800341	      0.04194968	     -0.34824318
